<?xml version="1.0" encoding="UTF-8"?>
<svg id="Layer_1" xmlns="http://www.w3.org/2000/svg" version="1.1" viewBox="0 0 300 81.87">
  <!-- Generator: Adobe Illustrator 30.1.0, SVG Export Plug-In . SVG Version: 2.1.1 Build 136)  -->
  <defs>
    <style>
      .st0 {
        fill: #63358e;
      }

      .st1 {
        fill: #3c1e56;
      }
    </style>
  </defs>
  <path class="st0" d="M175.5,18.6c-12-9.6-21.45-12.6-29.1-11.7-9,1.05-9.75,9.75,2.55,13.35,17.7,5.25,31.5,10.35,31.5,21.15,0,11.85-10.95,18.15-28.35,17.4-10.2-.45-21.45-4.2-23.55-5.55l.45-20.7c13.2,19.35,33.9,20.85,38.85,17.4,2.55-1.8,3.15-5.25-1.2-8.25-9.9-6.6-38.25-10.2-38.25-25.65,0-10.2,7.65-16.05,23.25-16.05h.15c6.3.15,18.75,1.95,23.1,3.6l.6,15h0Z"/>
  <g>
    <path class="st1" d="M85.65,65.4c-1.05-.9-2.55-1.35-4.65-1.35h-8.25v14.55h3.15v-3.9h5.1c2.1,0,3.6-.45,4.65-1.35,1.05-.9,1.5-2.25,1.5-3.9h0c0-1.8-.45-3.15-1.5-4.05ZM84,69.3c0,.75-.3,1.5-.75,1.8s-1.2.6-2.25.6h-5.1v-4.8h5.1c1.05,0,1.8.15,2.25.6.45.45.75,1.05.75,1.8h0Z"/>
    <path class="st1" d="M95.1,64.05l-7.2,14.4h3.45l1.35-3h8.25l1.5,3h3.45l-7.35-14.55-3.45.15h0ZM94.05,72.75l2.85-5.7,2.85,5.7h-5.7Z"/>
    <path class="st1" d="M119.55,73.5c.15,0,.3-.15.45-.15.9-.45,1.5-.9,1.95-1.65s.6-1.65.6-2.55h0c0-1.5-.45-2.85-1.5-3.6-1.05-.9-2.55-1.35-4.5-1.35h-8.55v14.55h3.15v-4.8h5.25l2.85,4.65h3.75l-3.45-5.1ZM111.3,66.9h5.4c.9,0,1.65.15,2.1.45s.75.9.75,1.65-.3,1.35-.75,1.65-1.2.6-2.1.6h-5.4v-4.35h0Z"/>
    <path class="st1" d="M119.4,78.45h0Z"/>
    <polygon class="st1" points="124.35 67.05 129.9 67.05 129.9 78.45 133.05 78.45 133.05 67.05 138.6 67.05 138.6 64.05 124.35 64.05 124.35 67.05"/>
    <polygon class="st1" points="153.6 73.5 144.15 64.05 141.3 64.05 141.3 78.45 144.45 78.45 144.45 69 153.9 78.45 156.75 78.45 156.75 64.05 153.6 64.05 153.6 73.5"/>
    <polygon class="st1" points="160.35 78.45 173.1 78.45 173.1 75.6 163.5 75.6 163.5 72.75 172.05 72.75 172.05 69.9 163.5 69.9 163.5 66.9 173.1 66.9 173.1 64.05 173.1 64.05 160.35 64.05 160.35 78.45"/>
    <path class="st1" d="M187.5,78.45h0Z"/>
    <path class="st1" d="M187.65,73.5c.15,0,.3-.15.45-.15.9-.45,1.5-.9,1.95-1.65s.6-1.65.6-2.55h0c0-1.5-.45-2.85-1.5-3.6-1.05-.9-2.55-1.35-4.5-1.35h-8.55v14.55h3.15v-4.8h5.25l3,4.5h3.6l-3.45-4.95ZM179.4,66.9h5.4c.9,0,1.65.15,2.1.45.45.3.75.9.75,1.65s-.15,1.35-.75,1.65c-.45.3-1.2.6-2.1.6h-5.4v-4.35h0Z"/>
    <path class="st1" d="M207,72.45c-.3-.6-.6-1.2-1.2-1.5-.6-.45-1.35-.75-2.25-.9l-5.1-.6h-.3c-.6-.15-1.05-.3-1.35-.6-.3-.15-.45-.45-.45-.9s.15-.75.6-1.05c.45-.3,1.05-.3,1.95-.3h2.7c.9,0,1.5.15,2.1.3.6.3,1.05.6,1.35,1.2h0l2.1-2.1c-.45-.75-1.2-1.35-2.1-1.65-.9-.45-2.1-.6-3.3-.6h-2.7c-1.8,0-3.3.45-4.35,1.2s-1.5,1.8-1.5,3.15c0,.6.15,1.2.45,1.8.3.45.6,1.05,1.2,1.35s1.35.6,2.1.9l5.4.75c.45.15.9.15,1.05.3s.45.3.6.45c.15.15.15.45.15.75,0,.45-.15.9-.6,1.2-.45.3-1.05.45-1.8.45h-2.7c-.9,0-1.65-.15-2.25-.45s-1.05-.9-1.5-1.65l-2.7,1.8c.45,1.05,1.2,1.8,2.25,2.4,1.05.6,2.4.75,4.05.75h2.7c1.2,0,2.1-.15,3-.6.9-.3,1.5-.9,1.95-1.5s.6-1.35.6-2.25c.3-.75.15-1.5-.15-2.1Z"/>
  </g>
  <path class="st0" d="M62.85,50.1c-.9-2.25-2.1-4.05-3.75-5.7s-3.45-3-5.7-4.05-4.8-1.8-7.65-2.25v-.3c2.85-1.35,5.1-2.7,6.9-3.9,1.8-1.35,3.3-2.7,4.35-4.05,1.05-1.5,1.8-3,2.25-4.65s.6-3.6.6-5.85c0-2.85-.75-5.4-2.1-7.8s-3.3-4.35-5.85-6.15-5.55-3-9-3.9S35.55.15,31.35.15H0v78.6h36.75c4.2,0,7.95-.6,11.4-1.65,3.45-1.2,6.3-2.7,8.7-4.5,2.4-1.95,4.2-4.2,5.55-6.75s1.95-5.4,1.95-8.4c-.3-2.85-.75-5.25-1.5-7.35h0ZM17.55,5.1h6.6c3.9,0,7.35.3,10.2,1.05s5.1,1.8,7.05,3c1.8,1.35,3.15,3,4.05,4.8.9,1.8,1.35,3.9,1.35,6.3,0,2.1-.3,4.2-1.05,6s-1.8,3.45-3.15,4.8c-1.5,1.35-3.15,2.4-5.25,3.15s-4.35,1.2-7.05,1.2H13.2V5.1h4.35ZM48.6,63.75c-.9,1.8-2.25,3.45-4.05,4.8s-4.2,2.4-7.05,3c-2.85.75-6.15,1.05-10.05,1.05h-14.25v-32.4h13.8c4.2,0,7.8.45,10.65,1.35,2.85.9,5.25,2.1,7.05,3.75,1.8,1.5,3.15,3.45,3.9,5.55s1.2,4.5,1.2,6.9c.15,2.25-.3,4.2-1.2,6h0Z"/>
  <path class="st0" d="M238.8,29.25c0-16.65,14.55-29.1,30.6-29.1s30.6,12.45,30.6,29.1-14.55,29.1-30.6,29.1-30.6-12.3-30.6-29.1ZM284.55,29.25c0-13.8-4.8-23.4-15.3-23.4s-15.15,9.6-15.15,23.4,4.95,23.55,15.3,23.55,15.15-9.45,15.15-23.55h0Z"/>
  <path class="st0" d="M63.6,29.4C63.6,12.75,78.15.3,94.2.3s30.6,12.45,30.6,29.1-14.55,29.1-30.6,29.1-30.6-12.3-30.6-29.1ZM109.5,29.4c0-13.95-4.8-23.55-15.3-23.55s-15.15,9.6-15.15,23.55,4.95,23.7,15.3,23.7,15.15-9.6,15.15-23.7Z"/>
  <path class="st0" d="M299.7,56.55c-6.45,4.2-12,6-20.1,7.35-22.65,3.6-49.65-9.6-63.15-31.65L243.9.3h-16.2l-24,29.25V.3h-16.65v58.35h16.65v-23.1c6.75,19.2,36,48.45,75.3,46.2,6.45-.3,14.25-1.05,20.7-3.15v-22.05h0Z"/>
</svg>