<?xml version="1.0" encoding="UTF-8"?>
<svg id="Layer_1" xmlns="http://www.w3.org/2000/svg" version="1.1" viewBox="0 0 300 300">
  <!-- Generator: Adobe Illustrator 30.1.0, SVG Export Plug-In . SVG Version: 2.1.1 Build 136)  -->
  <defs>
    <style>
      .st0 {
        fill: #dd212b;
      }

      .st1 {
        fill: #3351a2;
      }

      .st2 {
        fill: #efb24d;
      }
    </style>
  </defs>
  <path class="st1" d="M-.35,148.43v-4.88l.42-2.09c1.3-22.72,7.76-44.8,18.96-64.63l29.2,16.87c-9.39,16.94-14.29,35.4-14.62,54.67l-33.95.06Z"/>
  <path class="st1" d="M147.95,300.27h-5.01l-3.35-.38c-22.19-1.51-43.64-7.89-63.13-18.85l16.87-29.21c16.91,9.37,35.41,14.33,54.61,14.6v33.84Z"/>
  <path class="st2" d="M-.35,156.98v-4.88h33.95c.31,19.28,5.29,37.77,14.61,54.61l-29.21,16.86C7.86,203.72,1.52,182.13.12,159.7l-.47-2.72Z"/>
  <path class="st2" d="M156.61,300.27h-4.89v-33.85c19.26-.25,37.8-5.29,54.63-14.59l16.84,29.18c-20.69,11.85-43.26,17.75-66.58,19.26Z"/>
  <path class="st2" d="M147.96,33.95c-19.18.35-37.71,5.25-54.62,14.64l-16.87-29.19C96.36,8.12,118.5,1.74,141.3.39l6.65-.13v33.69Z"/>
  <path class="st2" d="M299.65,148.38l-33.59-.03c-.27-19.44-5.28-37.78-14.59-54.65l29.2-16.88c11.01,19.54,17.37,41.05,18.89,63.34l.09,8.22Z"/>
  <path class="st0" d="M50.13,90.45l-29.25-16.86c12.97-21.63,30.71-39.39,52.33-52.34l16.89,29.22c-16.47,9.99-29.89,23.3-39.97,39.98Z"/>
  <path class="st1" d="M223.21,19.37l-16.86,29.22c-16.8-9.33-35.35-14.3-54.62-14.62V.28s6.52.1,6.52.1c22.79,1.34,44.77,7.62,64.95,18.98Z"/>
  <path class="st0" d="M226.51,279.14l-16.95-29.2c16.4-9.9,30-23.4,40-39.99l29.25,16.87c-12.91,21.48-30.39,39.14-52.3,52.32Z"/>
  <path class="st1" d="M299.56,160.28c-1.57,22.34-7.85,43.69-18.89,63.29l-29.21-16.85c9.3-16.85,14.33-35.32,14.58-54.62h33.59s-.08,8.19-.08,8.19Z"/>
  <path class="st0" d="M249.58,90.47c-9.99-16.56-23.61-30.11-40.01-40.01l16.9-29.21c21.52,12.9,39.33,30.64,52.33,52.33l-29.22,16.89Z"/>
  <path class="st0" d="M73.21,279.16c-21.63-12.99-39.33-30.67-52.32-52.32l29.22-16.9c9.92,16.41,23.47,30.02,40,40l-16.9,29.22Z"/>
  <path class="st0" d="M155.6,87.02c-.66.88-1.77,1.46-2.84.97l-17.85-8.2c-.81-.37-1.27-1.29-1.24-2.09l-.06-5-35.86,3.3-22.57,34.59,5.76,12.44-4.99.05-5.41-11.59c-.36-.77-.32-1.65.17-2.4l23.77-36.43c.49-.75,1.2-1.04,2.09-1.12l38.76-3.58c1.58-.15,2.87.69,2.88,2.41l.03,5.94,14.36,6.62,2.45-4.15c.56-.95,1.49-1.37,2.63-1.21l25.57,3.46c.47.06,1.33.47,1.55.89l21.19,41.09h-5.13s-19.4-37.62-19.4-37.62l-23.11-3.13-2.77,4.78Z"/>
  <path class="st0" d="M200.62,176.03l1.35,13.33-21.97,39.55c-.37.67-1.05,1.31-1.81,1.37l-25.2,2.17c-1.1.09-2.1-.45-2.5-1.47l-13.72-34.93,2.62-14.94-1.09-5.03,4.64-.04,1.13,4.89-2.59,14.62,12.64,32.23,22.36-1.92,20.85-37.53-1.25-12.24,4.56-.07Z"/>
  <polygon class="st1" points="194.88 152.53 178.62 152.55 178.61 160.6 197.58 160.61 197.62 167.1 170.54 167.1 170.54 132.08 196.97 132.08 197 138.62 178.58 138.66 178.61 146.21 194.86 146.22 194.88 152.53"/>
  <path class="st1" d="M227.13,159.64l-16.21-.03-3.18,7.51-8.28-.05,15.57-34.96,8.04-.03,15.65,34.98-8.49.08-3.11-7.5ZM224.53,153.39l-5.5-13.2-5.49,13.14,10.99.07Z"/>
  <path class="st1" d="M88.68,159.64l-16.25-.02-3.12,7.49-8.31-.05,15.58-34.96h8.04s15.63,34.95,15.63,34.95l-8.53.04-3.04-7.45ZM86.01,153.29l-5.48-13.09-5.48,13.2,10.95-.11Z"/>
  <path class="st1" d="M119.36,160.69c4.06.36,7.44-1.15,10.02-4.1l5.18,4.82c-4.97,6.23-14.18,7.55-21.22,5.19-7.44-2.49-12.15-9.14-12.18-16.93-.02-7.12,3.8-13.38,10.28-16.36,7.21-3.32,17.7-2.29,23.12,4.35l-5.2,4.82c-4.25-4.85-11.5-5.5-16.41-1.33-2.57,2.19-3.56,5.42-3.54,8.72.04,5.74,4.08,10.3,9.94,10.81Z"/>
  <polygon class="st1" points="155.08 167.11 146.88 167.1 146.87 138.69 135.68 138.67 135.67 132.09 166.19 132.09 166.21 138.67 155.09 138.69 155.08 167.11"/>
  <path class="st0" d="M213.9,216.75l-6.79.05c-1.07,0-2.06-.74-2.28-1.81l-1.58-7.9,4.75-13.89,9.05-8.48c.54-.51,1.24-.9,1.91-.92s1.6.46,1.94,1.08l2.35,4.25c.25.45.33,1.47.15,2.01l-7.75,23.96c-.21.64-1,1.66-1.76,1.66ZM208.9,212.22l2.93-.08,6.98-21.6c.06-.2-.51-.73-.7-.54l-6.14,5.74-3.97,11.56.9,4.92Z"/>
</svg>