<svg xmlns="http://www.w3.org/2000/svg" version="1.1" xmlns:xlink="http://www.w3.org/1999/xlink" width="2000" height="1500" viewBox="0 0 2000 1500"><rect width="2000" height="1500" x="0" y="0" id="background" stroke="transparent" fill="#ffffff"></rect><svg xml:space="preserve" width="1500" height="1125" data-version="2" data-id="lg_CN4PYN7yN4bS3QHxCj" viewBox="0 0 635 114" x="250" y="187.5"><rect width="100%" height="100%" fill="transparent"></rect><rect width="119.45" height="119.45" x="-59.73" y="-59.73" fill="#ffdc00" rx="0" ry="0" transform="translate(61.94 59.05)scale(.5476)"></rect><path fill="#61328e" d="m207.23 14.93-9.2 8.17-1.9-.43q-1.89-7.3-6.13-11.83-4.23-4.53-11.68-4.53-7.01 0-11.6 5.04-4.6 5.04-4.6 12.19 0 5.7 3.21 9.93 3.21 4.23 8.32 7.45 5.11 3.21 10.8 5.69 11.54 4.96 17.38 11.24t5.84 15.04q0 7.15-3.58 13.21-3.58 6.06-9.42 10.37t-12.84 6.72q-7.01 2.4-14.02 2.4-7.59 0-14.31-3.43-6.71-3.43-9.78-11.46l8.32-9.63 2.48.14q2.34 7.59 7.01 12.63 4.67 5.04 12.41 5.04 5.7 0 10.44-2.85 4.75-2.85 7.59-7.66 2.85-4.82 2.85-10.95 0-4.09-2.55-7.96-2.56-3.87-6.65-6.94-4.09-3.06-8.47-4.96-8.76-3.8-14.74-7.74-5.99-3.94-8.98-8.98-2.99-5.03-2.99-12.19 0-9.2 4.45-15.33 4.45-6.13 11.53-9.27Q173.5.91 181.39.91q5.4 0 10.07.95t8.62 3.94q3.94 3 7.15 9.13"></path><rect width="63.95" height="104.68" x="-31.98" y="-52.34" fill="none" rx="0" ry="0" transform="translate(176.2 53.75)"></rect><path fill="#61328e" d="m261.83 40.48 7.74-4.53.73.73q-.87 15.92-.87 31.83 0 3.36-.22 8.03t.07 9.05q.29 4.38 1.61 7.3 1.31 2.92 4.23 2.92 1.61 0 4.38-.87 2.77-.88 5.11-1.76l1.02 3.51q-2.92 1.75-6.28 3.72-3.35 1.97-6.57 3.36-3.21 1.39-5.54 1.39-4.09 0-5.84-2.49-1.76-2.48-2.49-6.13l-2.19-.58q-5.4 3.5-11.38 6.35-5.99 2.85-12.41 2.85-6.14 0-10.22-2.63-4.09-2.63-6.57-6.86-2.49-4.24-3.58-9.27-1.1-5.04-1.1-10.01 0-7.73 1.98-15.03 1.97-7.3 6.13-13.22 4.16-5.91 10.73-9.34 6.57-3.43 15.91-3.43 3.51 0 7.81 1.31 4.31 1.32 7.81 3.8m-3.21 48.47V55.37q0-2.92-.29-5.55t-2.04-4.52q-1.9-2.05-4.53-3.43-2.63-1.39-5.4-1.39-8.03 0-13.87 5.55-2.48 2.33-5.04 8.61-2.55 6.28-2.85 17.37-.14 4.53.73 9.13.88 4.6 3.36 8.39 2.34 3.65 6.35 4.82 4.02 1.17 8.11 1.17 4.23 0 8.25-2.04 4.01-2.05 7.22-4.53"></path><rect width="74.17" height="69.79" x="-37.09" y="-34.9" fill="none" rx="0" ry="0" transform="translate(249.04 70.77)"></rect><path fill="#61328e" d="m371.92 88.07 1.6 2.78q-3.35 2.92-7.44 6.13t-8.18 5.4q-4.09 2.19-7.88 2.19-4.97 0-7.3-2.99-2.34-2.99-2.78-7.52l-1.16-.15q-4.09 2.49-8.84 5.04-4.74 2.56-9.49 4.24-4.74 1.67-9.12 1.67-6.28 0-9.56-2.77-3.29-2.77-4.53-6.86-1.24-4.09-1.24-8.18 0-1.75.07-5.11.07-3.36.22-7.01t.22-6.86q.07-3.21.07-4.82 0-6.71-.22-10.14-.22-3.43-.73-4.97-.51-1.53-1.53-2.55-1.17-1.32-4.09-1.32-1.46 0-4.67 1.46t-5.69 2.92l-1.9-2.92q2.92-2.19 6.35-4.67 3.43-2.48 6.93-4.23 3.51-1.75 6.57-1.75 5.55 0 7.45 3.06 1.9 3.07 2.04 10.15.15 7.08.15 19.49 0 7.45.51 13.87.51 6.42 3.21 10.37 2.7 3.94 9.42 3.94 4.96 0 9.93-2.56 4.96-2.55 9.2-5.18 0-7.15.07-16.13.07-8.98.07-16.72v-9.12q0-4.02-.14-6.36l11.24-5.11 1.9 1.61q-1.76 20.29-1.76 40.59 0 4.38.3 8.25.29 3.87 1.82 6.28 1.53 2.4 5.04 2.4 2.92 0 6.42-2.04 3.51-2.04 6.28-4.09Z"></path><rect width="95.77" height="70.08" x="-47.88" y="-35.04" fill="none" rx="0" ry="0" transform="translate(326.13 70.32)"></rect><path fill="#61328e" d="m417.32 53.91-1.75-.73q-.58-3.07-2.33-5.77-1.76-2.7-5.41-2.7-4.52 0-7.3 3.07-2.77 3.06-3.94 5.98-1.02 2.34-1.17 6.72-.14 4.38 0 9.27.15 4.89.15 8.83 0 10.95.44 22.2l-10.22 3.06-2.19-1.31q.73-7.74 1.24-16.79.51-9.05.51-17.81 0-5.7-.15-11.39-.14-5.7-1.46-9.49-1.31-3.8-4.67-3.8-2.48 0-5.55 1.46-3.06 1.46-5.84 3.07l-1.75-2.48q2.92-2.34 6.35-4.82 3.43-2.48 6.94-4.31 3.5-1.82 6.42-1.82 4.97 0 7.45 2.92 2.48 2.92 3.06 7.59l1.46.58q2.19-2.04 4.9-4.45 2.7-2.41 5.62-4.09 2.92-1.68 5.54-1.68 10.37 0 11.54 11.54Z"></path><rect width="59.28" height="69.49" x="-29.64" y="-34.74" fill="none" rx="0" ry="0" transform="translate(396.07 69.6)"></rect><path fill="#61328e" d="m476.45 40.48 7.74-4.53.73.73q-.87 15.92-.87 31.83 0 3.36-.22 8.03t.07 9.05q.29 4.38 1.61 7.3 1.31 2.92 4.23 2.92 1.61 0 4.38-.87 2.77-.88 5.11-1.76l1.02 3.51q-2.92 1.75-6.28 3.72-3.35 1.97-6.57 3.36-3.21 1.39-5.54 1.39-4.09 0-5.84-2.49-1.76-2.48-2.49-6.13l-2.19-.58q-5.4 3.5-11.38 6.35-5.99 2.85-12.41 2.85-6.14 0-10.22-2.63-4.09-2.63-6.57-6.86-2.49-4.24-3.58-9.27-1.1-5.04-1.1-10.01 0-7.73 1.98-15.03 1.97-7.3 6.13-13.22 4.16-5.91 10.73-9.34 6.57-3.43 15.91-3.43 3.51 0 7.81 1.31 4.31 1.32 7.81 3.8m-3.21 48.47V55.37q0-2.92-.29-5.55t-2.04-4.52q-1.9-2.05-4.53-3.43-2.63-1.39-5.4-1.39-8.03 0-13.87 5.55-2.48 2.33-5.04 8.61-2.55 6.28-2.85 17.37-.14 4.53.73 9.13.88 4.6 3.36 8.39 2.34 3.65 6.35 4.82 4.02 1.17 8.11 1.17 4.23 0 8.25-2.04 4.01-2.05 7.22-4.53"></path><rect width="74.17" height="69.79" x="-37.09" y="-34.9" fill="none" rx="0" ry="0" transform="translate(463.67 70.77)"></rect><path fill="#61328e" d="m545.22 53.91-1.75-.73q-.59-3.07-2.34-5.77-1.75-2.7-5.4-2.7-4.53 0-7.3 3.07-2.77 3.06-3.94 5.98-1.02 2.34-1.17 6.72-.15 4.38 0 9.27t.15 8.83q0 10.95.43 22.2l-10.22 3.06-2.19-1.31q.73-7.74 1.25-16.79.51-9.05.51-17.81 0-5.7-.15-11.39-.15-5.7-1.46-9.49-1.31-3.8-4.67-3.8-2.48 0-5.55 1.46t-5.84 3.07l-1.75-2.48q2.92-2.34 6.35-4.82 3.43-2.48 6.93-4.31 3.51-1.82 6.43-1.82 4.96 0 7.44 2.92 2.49 2.92 3.07 7.59l1.46.58q2.19-2.04 4.89-4.45 2.7-2.41 5.62-4.09 2.92-1.68 5.55-1.68 10.37 0 11.53 11.54Z"></path><rect width="59.27" height="69.49" x="-29.64" y="-34.74" fill="none" rx="0" ry="0" transform="translate(523.97 69.6)"></rect><path fill="#61328e" d="m604.35 40.48 7.74-4.53.73.73q-.88 15.92-.88 31.83 0 3.36-.22 8.03t.08 9.05q.29 4.38 1.6 7.3 1.32 2.92 4.24 2.92 1.6 0 4.38-.87 2.77-.88 5.11-1.76l1.02 3.51q-2.92 1.75-6.28 3.72-3.36 1.97-6.57 3.36-3.21 1.39-5.55 1.39-4.09 0-5.84-2.49-1.75-2.48-2.48-6.13l-2.19-.58q-5.4 3.5-11.39 6.35-5.98 2.85-12.41 2.85-6.13 0-10.22-2.63-4.09-2.63-6.57-6.86-2.48-4.24-3.57-9.27-1.1-5.04-1.1-10.01 0-7.73 1.97-15.03 1.97-7.3 6.13-13.22 4.16-5.91 10.73-9.34 6.57-3.43 15.92-3.43 3.5 0 7.81 1.31 4.31 1.32 7.81 3.8m-3.21 48.47V55.37q0-2.92-.29-5.55-.3-2.63-2.05-4.52-1.9-2.05-4.52-3.43-2.63-1.39-5.41-1.39-8.03 0-13.87 5.55-2.48 2.33-5.03 8.61-2.56 6.28-2.85 17.37-.15 4.53.73 9.13.88 4.6 3.36 8.39 2.33 3.65 6.35 4.82 4.01 1.17 8.1 1.17 4.24 0 8.25-2.04 4.02-2.05 7.23-4.53"></path><rect width="74.17" height="69.79" x="-37.09" y="-34.9" fill="none" rx="0" ry="0" transform="translate(591.57 70.77)"></rect><circle r="50" fill="#3b1c55" transform="translate(33.23 30.16)scale(.5476)"></circle><circle r="50" fill="#967cb2" transform="translate(88.97 30.16)scale(.5476)"></circle><circle r="50" fill="#61328e" transform="translate(33.23 85.7)scale(.5476)"></circle><circle r="50" fill="#633394" transform="translate(88.97 85.7)scale(.5476)"></circle></svg></svg>